0
SECTION
2
HEADER
9
$INSUNITS
70
4
9
$ACADVER
1
AC1014
9
$HANDSEED
5
FFFF
0
ENDSEC
0
SECTION
2
TABLES
0
TABLE
2
VPORT
5
8
100
AcDbSymbolTable
0
ENDTAB
0
TABLE
2
LTYPE
5
5
100
AcDbSymbolTable
0
LTYPE
5
14
100
AcDbSymbolTableRecord
100
AcDbLinetypeTableRecord
2
BYBLOCK
70
0
0
LTYPE
5
15
100
AcDbSymbolTableRecord
100
AcDbLinetypeTableRecord
2
BYLAYER
70
0
0
ENDTAB
0
TABLE
2
LAYER
5
2
100
AcDbSymbolTable
70
2
0
LAYER
5
50
100
AcDbSymbolTableRecord
100
AcDbLayerTableRecord
2
0
70
0
6
CONTINUOUS
0
ENDTAB
0
TABLE
2
STYLE
5
3
100
AcDbSymbolTable
70
1
0
STYLE
5
11
100
AcDbSymbolTableRecord
100
AcDbTextStyleTableRecord
2
STANDARD
70
0
0
ENDTAB
0
TABLE
2
VIEW
5
6
100
AcDbSymbolTable
70
0
0
ENDTAB
0
TABLE
2
UCS
5
7
100
AcDbSymbolTable
70
0
0
ENDTAB
0
TABLE
2
APPID
5
9
100
AcDbSymbolTable
70
2
0
APPID
5
12
100
AcDbSymbolTableRecord
100
AcDbRegAppTableRecord
2
ACAD
70
0
0
ENDTAB
0
TABLE
2
DIMSTYLE
5
A
100
AcDbSymbolTable
70
1
0
ENDTAB
0
TABLE
2
BLOCK_RECORD
5
1
100
AcDbSymbolTable
70
1
0
BLOCK_RECORD
5
1F
100
AcDbSymbolTableRecord
100
AcDbBlockTableRecord
2
*MODEL_SPACE
0
BLOCK_RECORD
5
1B
100
AcDbSymbolTableRecord
100
AcDbBlockTableRecord
2
*PAPER_SPACE
0
ENDTAB
0
ENDSEC
0
SECTION
2
BLOCKS
0
BLOCK
5
20
100
AcDbEntity
100
AcDbBlockBegin
2
*MODEL_SPACE
0
ENDBLK
5
21
100
AcDbEntity
100
AcDbBlockEnd
0
BLOCK
5
1C
100
AcDbEntity
100
AcDbBlockBegin
2
*PAPER_SPACE
0
ENDBLK
5
1D
100
AcDbEntity
100
AcDbBlockEnd
0
ENDSEC
0
SECTION
2
ENTITIES
0
LINE
5
100
100
AcDbEntity
8
0
100
AcDbLine
10
599.94877894245531
20
0.017978986344164838
30
0
11
599.94877894245531
21
99.266928173916142
31
0
0
SPLINE
5
101
100
AcDbEntity
8
0
100
AcDbSpline
70
4
71
3
72
10
73
6
74
0
42
0.000000001
43
0.0000000001
44
0.0000000001
40
-17.555806439229222
40
-17.555806439229222
40
-17.555806439229222
40
-17.555806439229222
40
-13.236182508697999
40
-13.236182508697999
40
-6.5910621623569465
40
-6.5910621623569465
40
-6.5910621623569465
40
-6.5910621623569465
41
1
41
1
41
1
41
1
41
1
41
1
10
599.94877894245531
20
99.266928173916142
30
0
10
564.17978080301407
20
96.25207602250876
30
0
10
528.88321151579908
20
93.084414865677644
30
0
10
441.8252707670332
20
85.155075151661151
30
0
10
388.83134659262566
20
80.197696996715223
30
0
10
343.55435619755394
20
76.363433813072675
30
0
0
SPLINE
5
102
100
AcDbEntity
8
0
100
AcDbSpline
70
4
71
3
72
8
73
4
74
0
42
0.000000001
43
0.0000000001
44
0.0000000001
40
-6.5910621623362982
40
-6.5910621623362982
40
-6.5910621623362982
40
-6.5910621623362982
40
-1.8200186590161774e-07
40
-1.8200186590161774e-07
40
-1.8200186590161774e-07
40
-1.8200186590161774e-07
41
1
41
1
41
1
41
1
10
343.55435619713194
20
76.363433813036906
30
0
10
298.64569624473143
20
72.560362540419291
30
0
10
261.32892553335438
20
69.862207379678296
30
0
10
239.36149243962461
20
69.51306743329431
30
0
0
SPLINE
5
103
100
AcDbEntity
8
0
100
AcDbSpline
70
4
71
3
72
10
73
6
74
0
42
0.000000001
43
0.0000000001
44
0.0000000001
40
-25.453251506793713
40
-25.453251506793713
40
-25.453251506793713
40
-25.453251506793713
40
-13.272898920059385
40
-13.272898920059385
40
-2.9759482388480283
40
-2.9759482388480283
40
-2.9759482388480283
40
-2.9759482388480283
41
1
41
1
41
1
41
1
41
1
41
1
10
239.36149243962461
20
69.51306743329431
30
0
10
186.11869257628072
20
63.218568022223153
30
0
10
143.6591977534502
20
59.485949802583761
30
0
10
68.889665046028767
20
54.285553333372633
30
0
10
34.450405914611935
20
52.524419255897129
30
0
10
0.081153630982200298
20
51.252542985742231
30
0
0
LINE
5
104
100
AcDbEntity
8
0
100
AcDbLine
10
0.081153630982212024
20
51.252542985742238
30
0
11
-2.2749232471142022e-05
21
17.993360670168975
31
0
0
LINE
5
105
100
AcDbEntity
8
0
100
AcDbLine
10
-2.2749232471142022e-05
20
17.993360670168975
30
0
11
264.33658625804401
21
17.348188791589067
31
0
0
LINE
5
106
100
AcDbEntity
8
0
100
AcDbLine
10
264.33658625804401
20
17.348188791589067
30
0
11
264.52659161710523
21
22.344577283642906
31
0
0
LINE
5
107
100
AcDbEntity
8
0
100
AcDbLine
10
264.52659161710523
20
22.344577283642906
30
0
11
565.89126597440907
21
10.884118744300473
31
0
0
LINE
5
108
100
AcDbEntity
8
0
100
AcDbLine
10
565.89126597440907
20
10.884118744300473
30
0
11
565.62866210855168
21
3.9786770467817654
31
0
0
SPLINE
5
109
100
AcDbEntity
8
0
100
AcDbSpline
70
4
71
5
72
12
73
6
74
0
42
0.000000001
43
0.0000000001
44
0.0000000001
40
0
40
0
40
0
40
0
40
0
40
0
40
0.025641637150552822
40
0.025641637150552822
40
0.025641637150552822
40
0.025641637150552822
40
0.025641637150552822
40
0.025641637150552822
41
1
41
1
41
1
41
1
41
1
41
1
10
565.62866210855168
20
3.9786770467817645
30
0
10
572.59626832391939
20
3.1634315146541003
30
0
10
579.51209594418344
20
2.3597358618450981
30
0
10
586.37614497257516
20
1.5675900841209689
30
0
10
593.18838765115152
20
0.78700037642391862
30
0
10
599.94877894245531
20
0.017978986344164838
30
0
0
CIRCLE
5
110
100
AcDbEntity
8
0
100
AcDbCircle
10
585.78729291514173
20
16.292323860594177
30
0
40
5
210
0
220
-0
230
1
0
CIRCLE
5
111
100
AcDbEntity
8
0
100
AcDbCircle
10
484.8276075977559
20
74.339792548754119
30
0
40
5
210
0
220
-0
230
1
0
CIRCLE
5
112
100
AcDbEntity
8
0
100
AcDbCircle
10
391.82996148405709
20
65.601443535723106
30
0
40
5
210
0
220
-0
230
1
0
CIRCLE
5
113
100
AcDbEntity
8
0
100
AcDbCircle
10
256.37281602504464
20
28.855363502755964
30
0
40
5
210
0
220
-0
230
1
0
LWPOLYLINE
5
114
100
AcDbEntity
8
0
100
AcDbPolyline
90
4
70
1
43
0.0
10
0
20
0
10
910
20
0
10
910
20
100
10
0
20
100
0
ENDSEC
0
SECTION
2
OBJECTS
0
DICTIONARY
5
C
100
AcDbDictionary
3
ACAD_GROUP
350
D
3
ACAD_MLINESTYLE
350
17
0
DICTIONARY
5
D
100
AcDbDictionary
0
DICTIONARY
5
1A
330
C
100
AcDbDictionary
0
DICTIONARY
5
17
100
AcDbDictionary
0
ENDSEC
0
EOF
